PathFileType	4	(X/Y/Z)	Patient4_TMGait_0pt8_01_left_27.trc.trc
DataRate	CameraRate	NumFrames	NumMarkers	Units	OrigDataRate	OrigDataStartFrame	OrigNumFrames
89.171974522293	89.171974522293	5	33	mm	89.171974522293	18	       141
Frame#	Time	Sacral			L.Shoulder			Chest			R.Shoulder			Neck			R.ASIS			L.ASIS			R.Thigh.Superior			R.Thigh.Lateral			R.Thigh.Inferior			R.Patella			L.Thigh.Superior			L.Thigh.Lateral			L.Thigh.Inferior			L.Patella			L.Shank.Superior			L.Shank.Lateral			L.Shank.Inferior			R.Shank.Superior			R.Shank.Lateral			R.Shank.Inferior			R.Heel			R.Midfoot.Superior			R.Midfoot.Lateral			R.Toe			L.Heel			L.Midfoot.Lateral			L.Midfoot.Superior			L.Toe			L.Elbow			L.Wrist			R.Elbow			R.Wrist			
		X1	Y1	Z1	X2	Y2	Z2	X3	Y3	Z3	X4	Y4	Z4	X5	Y5	Z5	X6	Y6	Z6	X7	Y7	Z7	X8	Y8	Z8	X9	Y9	Z9	X10	Y10	Z10	X11	Y11	Z11	X12	Y12	Z12	X13	Y13	Z13	X14	Y14	Z14	X15	Y15	Z15	X16	Y16	Z16	X17	Y17	Z17	X18	Y18	Z18	X19	Y19	Z19	X20	Y20	Z20	X21	Y21	Z21	X22	Y22	Z22	X23	Y23	Z23	X24	Y24	Z24	X25	Y25	Z25	X26	Y26	Z26	X27	Y27	Z27	X28	Y28	Z28	X29	Y29	Z29	X30	Y30	Z30	X31	Y31	Z31	X32	Y32	Z32	X33	Y33	Z33	

18	29.820642857143	868.751270267384	1001.844029897773	497.419845633247	1027.618058012684	1417.444132029790	293.318429962847	1152.049655328482	1348.368195093810	439.410848267135	1098.609633145871	1430.239507955350	620.336090500076	1036.277851836419	1482.337855185347	447.527364392481	1099.833583671014	925.887266542034	589.771599987196	1062.188577622279	950.865976527566	316.811298666426	1086.234393362555	711.891399911324	563.075786529229	978.180581836125	624.106640643621	628.645498676980	1031.765986104085	555.067526835677	547.202532061518	1006.923943159257	472.260339423718	552.474890939254	1143.568179665317	779.616198545719	354.120883468663	1114.187790341234	650.253126551820	269.125921663411	1214.560873876900	596.236478482361	340.811239679960	1248.531682091179	536.906126631356	336.296972718125	1240.704115750644	464.236153133815	323.123734419075	1195.253698496039	327.796457039281	265.784387930453	1290.687304161261	239.483680164393	325.929565643853	965.325298714537	390.406227296031	560.990552554436	876.956394087044	300.673320472981	622.559534427637	900.673716078060	200.003220185833	559.621994185101	744.672853830220	46.341477538685	528.215358920712	915.137765127867	96.792868523482	571.118941326992	823.698438905050	38.647547244657	606.964773582486	1031.971313225406	40.242699999876	608.050754873018	1228.984822945253	49.706869121069	357.738995937651	1310.001693183488	61.493744143663	285.315403830755	1366.865170305190	149.774412734496	309.658395423807	1505.915106947690	138.129275963402	298.731331423107	890.328611510651	1085.544681126475	217.668581574560	853.158637573388	829.447594733727	247.528319505148	1269.683599554332	1139.567847873859	720.463122133672	1461.360699549916	1261.835721329816	618.110541934941	
19	29.831857142857	870.021675491925	1000.499021721281	495.337751985033	1028.348873081007	1416.299349620617	291.927405480270	1152.948140262367	1346.968955550648	437.813721638667	1099.485603139251	1428.885058229440	618.594832197086	1036.974432767792	1480.856196894951	446.180556857118	1100.591024762236	924.194037723855	588.293650094984	1063.975856750341	949.041884830003	315.081574237982	1084.929420106982	709.909257175364	562.204620630409	975.659685911178	623.210624634989	627.641649760451	1028.746919709794	553.473549931518	546.470984655236	1002.903428209727	470.778419046278	551.647334123857	1145.056270619188	777.880604382752	353.531542404788	1115.015177015993	648.107498334934	268.900513893812	1215.407546374084	594.260849834891	340.014057490841	1248.679833536626	534.501673562091	335.990058732747	1240.870492100723	461.756006098904	322.877129439191	1194.962237344958	325.358225049981	266.412873237616	1290.355337246167	237.152637056351	326.536933874915	960.422029726260	389.353155306335	560.338505246897	870.961078342961	300.771674175582	622.135634094055	893.363433148814	199.721199151921	559.359978407567	735.810982403105	47.185000958078	528.275687649508	906.487888480653	96.970446084340	571.197063772644	814.839456712261	39.096431171130	606.972465372945	1023.026778669835	39.970174145692	608.177431389588	1228.496429179789	48.198896703374	359.573399570999	1308.850142851622	59.318960949258	286.437607421446	1366.441163336324	147.005322323215	310.137565073138	1505.140126579373	134.347023511177	298.022833820027	884.856552123337	1088.018725653975	216.538333251153	843.019371547099	832.662947431140	248.297207371499	1276.704337197186	1143.008427779177	717.275980239864	1460.782179047285	1274.449807256378	613.364094437315	
20	29.843071428571	871.531174219223	999.051848413083	493.011992526716	1029.175854597248	1415.030640329596	290.314754295745	1153.883493831303	1345.565805773038	436.083214685840	1100.228422313591	1427.485698963126	616.710053599250	1037.651746557104	1479.293364635786	444.605913910698	1101.499905972823	922.448657411142	586.789822109726	1066.114412952384	947.086782030673	313.266036243106	1083.904695018097	707.873334427031	561.265656845648	973.447239809359	622.270821148317	626.551332597690	1026.105793214910	551.812641849521	545.674095839696	999.247388162388	469.155075257541	550.736175144560	1147.115409030969	776.162769949692	352.808882125989	1116.095980042884	645.812026007208	268.849357502106	1216.742165794493	592.244912372520	339.107048714982	1249.047721466715	531.622772049884	335.681859827973	1240.855463257900	458.658947954921	322.697823857112	1193.539522428954	322.674586280631	267.052066439735	1288.229157375468	233.903321094233	327.156278170222	955.789619990137	388.155827208375	559.578582250994	865.192315604175	300.865690874734	621.673955629561	886.174113143809	199.419158576351	559.079849539129	726.947007192894	48.137027936145	528.395395008011	897.877261922308	97.176229401828	571.285276973701	805.994638874179	39.596133803142	606.996122679586	1014.109216229994	39.715423582705	608.296009053462	1224.850338491002	46.423994748607	361.303137085307	1304.450453232560	56.425016542690	287.301342531744	1363.508192720106	142.881059254063	310.516080206759	1501.682540562769	128.071918190090	296.872180912459	880.015083215377	1090.232478887624	215.467893528465	833.643826666114	835.633305407526	248.578511655376	1282.820430848171	1146.092448190755	714.215621998655	1459.591788043051	1285.537114902115	608.976734119965	
21	29.854285714286	873.277045408320	997.512854127409	490.451330986517	1030.113677181369	1413.632583809658	288.471068080809	1154.858231486053	1344.169086860141	434.224888408589	1100.830915491375	1426.051076731823	614.689323788268	1038.315499356787	1477.661412278093	442.792293058901	1102.565669895056	920.659605373671	585.270825513296	1068.593395502109	945.020806788881	311.390839193055	1083.181927858609	705.789198921026	560.290391418378	971.549724200042	621.278046760205	625.367794529329	1023.876605084516	550.075730463120	544.822296217212	995.998257304374	467.357655434570	549.752893619251	1149.677702201772	774.398286791461	351.942349485691	1117.396701865988	643.404871390781	268.875671713641	1218.463396777666	590.149584183137	338.121332446161	1249.547292479175	528.320117314074	335.398779358536	1240.671381523047	455.053669622371	322.564676073764	1191.245600887146	319.778553879481	267.602943492651	1284.668277999138	229.907120472159	327.755307910734	951.447225082177	386.813168911181	558.717331754389	859.658444590682	300.962621107104	621.174654361324	879.113227663168	199.104235871208	558.790391139439	718.074951481511	49.220881002694	528.588557178301	889.311342991929	97.402508487179	571.390958568185	797.160319487993	40.151069398772	607.042973661861	1005.216811892079	39.482239627776	608.404702190477	1218.595843474767	44.496814810214	362.800232587111	1297.436185198006	52.999980355789	287.873272394583	1358.570633147261	137.650279979395	310.841340996249	1496.077228728825	119.687869210238	295.515758573950	875.874634498971	1092.096099755093	214.418196267384	825.083726603983	838.290045835108	248.341589590473	1288.012444559645	1148.722753641850	711.304736084010	1457.876808731569	1295.090824176525	604.955061905673	
22	29.865500000000	875.236514824171	995.904357426711	487.678469415517	1031.179394981823	1412.112497106465	286.392753098034	1155.877306489062	1342.796617479472	432.249318915435	1101.293672783097	1424.603598355118	612.543925538372	1038.978076102107	1475.986294549032	440.734528119295	1103.785881838971	918.844098874642	583.743059661028	1071.377108714373	942.884689792607	309.489352048020	1082.786409825275	703.675045929040	559.296578692727	969.992029150406	620.223654635760	624.078561290948	1022.112104173818	548.261386354611	543.915731185266	993.226687692643	465.352973655338	548.708751918374	1152.648915645177	772.549682721473	350.930100759892	1118.885861513987	640.961631272746	268.862352368442	1220.463649519295	587.972962630978	337.068538028156	1250.112596258552	524.708215558674	335.119448604214	1240.354057964186	451.111697756610	322.418634908891	1188.367508309252	316.758395947999	267.981692585106	1280.089748490825	225.418733562520	328.290010929538	947.436823581791	385.334331447035	557.765136271138	854.382366099220	301.082742602293	620.633652096053	872.203444354926	198.794975404099	558.499422909623	709.197538884019	50.483976173540	528.860050235253	880.806620776054	97.642817251486	571.522247196928	788.335961016421	40.781940327676	607.117476997724	996.343835354294	39.269541467784	608.503342951314	1210.389171029612	42.580236921063	364.003385319436	1288.515904726095	49.306582900640	288.157601744587	1352.179807644422	131.674247285430	311.144606288340	1488.899320710114	109.758778615961	294.126745868678	872.514760672600	1093.527402777140	213.331077413033	817.425836797675	840.565588429582	247.569399777391	1292.266779321048	1150.807688008740	708.566104410175	1455.712138837316	1303.112877897117	601.304933457827	
